<svg width="22" height="24" viewBox="0 0 22 24" fill="none" xmlns="http://www.w3.org/2000/svg">
<g opacity="0.7" clip-path="url(#clip0_1_1987)">
<g clip-path="url(#clip1_1_1987)">
<path fill-rule="evenodd" clip-rule="evenodd" d="M2.73613 6.05966C4.17821 6.05966 5.34725 4.89061 5.34725 3.44853C5.34725 2.00644 4.17821 0.837402 2.73613 0.837402C1.29404 0.837402 0.125 2.00644 0.125 3.44853C0.125 4.89061 1.29404 6.05966 2.73613 6.05966ZM21.9279 22.5866V14.35C21.9279 11.9678 21.5666 10.0605 20.3665 8.96886C19.4517 8.13436 18.1859 7.56891 15.7908 7.68764C13.6896 7.79355 12.4349 9.62656 12.2034 9.99897L12.1394 7.99684H7.82422V22.5857H12.3589V14.9411L12.3512 14.713C12.3879 14.0938 12.487 13.2447 12.9107 12.599C13.4231 11.8183 14.4208 11.5484 15.468 11.6594C17.0293 11.8209 17.3659 13.4625 17.3659 14.2296V22.5874L21.9279 22.5866ZM0.44873 7.99779H4.97058V22.5866H0.44873V7.99779Z" fill="black"/>
</g>
</g>
<defs>
<clipPath id="clip0_1_1987">
<rect width="22" height="23" fill="white" transform="translate(0 0.5)"/>
</clipPath>
<clipPath id="clip1_1_1987">
<rect width="22" height="23" fill="white" transform="translate(0 0.5)"/>
</clipPath>
</defs>
</svg>
