<svg width="24" height="24" viewBox="0 0 24 24" fill="none" xmlns="http://www.w3.org/2000/svg">
<g opacity="0.7">
<g clip-path="url(#clip0_1_1982)">
<g clip-path="url(#clip1_1_1982)">
<path d="M7.55 21.9632C16.605 21.9632 21.558 14.4592 21.558 7.95516C21.558 7.74416 21.554 7.52816 21.544 7.31716C22.508 6.62016 23.34 5.75716 24 4.76816C23.102 5.16716 22.15 5.42816 21.174 5.54116C22.201 4.92616 22.971 3.95816 23.339 2.81816C22.373 3.39116 21.316 3.79516 20.213 4.01316C19.471 3.22416 18.489 2.70216 17.42 2.52716C16.35 2.35216 15.253 2.53416 14.298 3.04516C13.342 3.55616 12.582 4.36716 12.134 5.35416C11.686 6.34116 11.575 7.44716 11.819 8.50316C9.862 8.40516 7.948 7.89616 6.2 7.01116C4.452 6.12516 2.91 4.88216 1.673 3.36216C1.044 4.44616 0.852 5.72816 1.135 6.94916C1.418 8.16916 2.155 9.23616 3.196 9.93316C2.415 9.90816 1.65 9.69716 0.966 9.31916V9.38016C0.965 10.5172 1.358 11.6192 2.078 12.4992C2.799 13.3802 3.801 13.9832 4.916 14.2082C4.192 14.4062 3.432 14.4352 2.695 14.2922C3.009 15.2702 3.622 16.1262 4.446 16.7392C5.27 17.3522 6.265 17.6932 7.292 17.7142C5.548 19.0842 3.394 19.8272 1.177 19.8232C0.783 19.8232 0.39 19.7992 0 19.7512C2.253 21.1962 4.874 21.9642 7.55 21.9632Z" fill="black"/>
</g>
</g>
</g>
<defs>
<clipPath id="clip0_1_1982">
<rect width="24" height="20" fill="white" transform="translate(0 2)"/>
</clipPath>
<clipPath id="clip1_1_1982">
<rect width="24" height="20" fill="white" transform="translate(0 2)"/>
</clipPath>
</defs>
</svg>
