<svg width="24" height="24" viewBox="0 0 24 24" fill="none" xmlns="http://www.w3.org/2000/svg">
<g opacity="0.7" clip-path="url(#clip0_1_1996)">
<g clip-path="url(#clip1_1_1996)">
<path d="M23.7609 7.1669C23.7609 7.1669 23.5266 5.60413 22.8047 4.91794C21.8906 4.01481 20.8688 4.01038 20.4 3.95726C17.0438 3.72705 12.0047 3.72705 12.0047 3.72705H11.9953C11.9953 3.72705 6.95625 3.72705 3.6 3.95726C3.13125 4.01038 2.10938 4.01481 1.19531 4.91794C0.473438 5.60413 0.24375 7.1669 0.24375 7.1669C0.24375 7.1669 0 9.00413 0 10.8369V12.5547C0 14.3874 0.239062 16.2247 0.239062 16.2247C0.239062 16.2247 0.473437 17.7874 1.19062 18.4737C2.10469 19.3768 3.30469 19.3458 3.83906 19.4432C5.76094 19.6159 12 19.669 12 19.669C12 19.669 17.0438 19.6601 20.4 19.4344C20.8688 19.3812 21.8906 19.3768 22.8047 18.4737C23.5266 17.7874 23.7609 16.2247 23.7609 16.2247C23.7609 16.2247 24 14.3919 24 12.5547V10.8369C24 9.00413 23.7609 7.1669 23.7609 7.1669ZM9.52031 14.6398V8.26923L16.0031 11.4656L9.52031 14.6398Z" fill="black"/>
</g>
</g>
<defs>
<clipPath id="clip0_1_1996">
<rect width="24" height="17" fill="white" transform="translate(0 3)"/>
</clipPath>
<clipPath id="clip1_1_1996">
<rect width="24" height="17" fill="white" transform="translate(0 3)"/>
</clipPath>
</defs>
</svg>
